<?xml version="1.0" standalone="no"?>
<!DOCTYPE svg PUBLIC "-//W3C//DTD SVG 20010904//EN"
 "http://www.w3.org/TR/2001/REC-SVG-20010904/DTD/svg10.dtd">
<svg version="1.0" xmlns="http://www.w3.org/2000/svg"
 width="1091.000000pt" height="1091.000000pt" viewBox="0 0 1091.000000 1091.000000"
 preserveAspectRatio="xMidYMid meet">
<metadata>
Created by potrace 1.14, written by Peter Selinger 2001-2017
</metadata>
<g transform="translate(0.000000,1091.000000) scale(0.100000,-0.100000)"
fill="#000000" stroke="none">
<path d="M5416 10765 c-4 -14 -13 -65 -22 -113 -8 -48 -17 -98 -19 -112 -3
-14 -25 -142 -50 -285 -25 -143 -47 -271 -50 -285 -4 -23 -50 -289 -61 -355
-3 -16 -7 -37 -9 -45 -2 -8 -6 -33 -10 -54 -12 -85 -47 -271 -51 -275 -6 -6
-12 -7 -109 -16 -44 -4 -82 -8 -85 -10 -3 -2 -29 -6 -59 -10 -30 -4 -63 -9
-75 -11 -12 -2 -37 -7 -56 -10 -19 -3 -43 -7 -52 -10 -10 -3 -30 -7 -45 -10
-61 -11 -263 -64 -358 -94 -234 -75 -576 -227 -759 -338 -37 -23 -72 -42 -77
-42 -5 0 -9 -4 -9 -8 0 -5 -12 -14 -27 -21 -15 -7 -83 -51 -150 -98 -298 -207
-589 -483 -819 -775 -416 -526 -696 -1191 -779 -1848 -4 -30 -9 -63 -11 -73
-2 -10 -4 -39 -5 -63 -2 -25 -6 -47 -9 -49 -6 -4 -173 -35 -270 -50 -19 -3
-84 -14 -145 -25 -60 -11 -126 -22 -145 -25 -19 -3 -42 -8 -50 -10 -8 -2 -33
-6 -55 -10 -22 -3 -105 -17 -185 -31 -80 -14 -197 -34 -260 -45 -63 -11 -137
-24 -165 -29 -27 -5 -63 -12 -80 -15 -16 -3 -39 -7 -50 -9 -30 -5 -119 -19
-130 -20 -5 -1 -11 -24 -13 -52 l-2 -52 57 -8 c32 -4 60 -8 63 -9 3 0 28 -5
55 -10 28 -4 55 -9 60 -11 20 -4 321 -56 350 -60 17 -2 50 -8 75 -14 44 -9
131 -24 265 -46 17 -2 54 -9 83 -15 29 -6 65 -12 80 -14 15 -2 65 -10 112 -19
47 -9 101 -18 120 -22 19 -3 60 -10 90 -15 30 -6 73 -12 95 -15 47 -6 54 -16
56 -69 0 -22 2 -47 4 -56 1 -8 6 -41 9 -71 4 -31 9 -66 11 -79 3 -13 7 -40 10
-59 3 -19 7 -46 10 -60 3 -14 8 -38 11 -55 16 -90 60 -257 100 -385 161 -507
408 -951 759 -1360 90 -105 378 -381 495 -474 124 -99 382 -280 419 -294 8 -3
44 -23 79 -45 63 -38 265 -140 367 -184 217 -95 563 -205 755 -239 14 -3 50
-9 80 -14 30 -6 64 -12 75 -14 11 -2 65 -9 120 -16 55 -7 109 -13 120 -15 11
-2 27 -4 36 -4 16 -1 21 -17 35 -116 3 -16 9 -50 14 -75 5 -25 18 -99 30 -165
11 -66 22 -130 24 -141 3 -12 7 -39 10 -60 6 -40 22 -129 31 -174 3 -13 7 -40
10 -60 3 -20 8 -47 10 -60 3 -14 8 -41 11 -60 2 -19 9 -55 14 -80 5 -25 11
-58 14 -75 5 -37 54 -320 61 -355 5 -23 25 -133 25 -134 0 -1 21 -1 47 -1 l48
0 17 100 c28 162 37 215 69 395 12 63 22 124 24 135 2 11 13 75 25 143 12 68
23 135 25 150 2 15 6 36 8 47 3 11 8 40 12 65 8 51 12 74 20 110 2 14 7 41 10
60 3 19 13 73 22 120 8 47 16 92 18 100 14 108 18 122 42 131 13 5 41 9 61 9
44 0 222 26 352 51 131 25 460 117 535 148 11 5 74 30 140 56 227 89 515 243
719 383 84 57 256 187 291 219 11 10 52 45 90 78 146 126 337 329 480 510 346
437 628 1048 730 1582 8 43 17 89 20 103 2 13 7 42 10 65 3 22 10 67 15 100 5
33 11 87 15 120 4 33 7 60 8 61 1 0 76 13 167 28 91 16 174 30 185 32 11 2
101 18 200 34 209 36 222 38 255 45 14 3 90 16 170 30 141 24 167 29 220 40
14 3 41 7 60 10 19 2 45 6 56 9 12 2 39 7 60 11 22 3 53 8 69 11 17 3 48 9 70
13 l40 6 -4 45 c-1 25 -5 48 -7 51 -2 4 -30 10 -61 15 -32 4 -60 8 -63 9 -3 1
-27 5 -55 10 -27 4 -59 9 -70 11 -11 3 -35 7 -54 10 -18 3 -43 8 -55 10 -11 2
-48 9 -81 14 -33 5 -70 12 -81 14 -12 2 -37 7 -55 10 -19 3 -59 10 -89 15 -30
5 -149 26 -265 46 -115 20 -217 38 -225 40 -8 2 -35 7 -60 10 -25 3 -52 8 -60
10 -8 2 -31 7 -50 10 -19 3 -76 12 -126 21 l-92 16 -6 46 c-3 26 -8 72 -12
102 -6 63 -26 185 -39 250 -3 14 -7 36 -10 50 -3 14 -7 36 -10 50 -3 14 -8 36
-11 50 -8 40 -75 283 -84 305 -5 11 -14 38 -21 60 -47 160 -217 527 -332 720
-249 417 -616 823 -999 1108 -429 319 -913 542 -1433 661 -60 14 -126 28 -145
31 -19 3 -62 10 -95 16 -69 13 -86 15 -175 23 -123 13 -116 8 -129 89 -6 40
-14 88 -17 107 -2 19 -13 82 -24 140 -11 58 -28 159 -40 225 -11 66 -22 131
-25 145 -5 24 -8 45 -20 115 -8 50 -36 208 -42 240 -3 17 -7 39 -9 50 -2 11
-6 34 -9 50 -3 17 -8 46 -11 65 -11 65 -15 85 -24 140 -6 30 -13 74 -16 98
-13 92 -16 97 -66 100 -42 2 -46 0 -52 -23z m1 -2859 c0 -1650 -3 -2271 -11
-2263 -6 7 -18 26 -26 42 -8 17 -19 37 -26 45 -6 8 -25 40 -41 70 -17 30 -111
195 -208 365 -98 171 -189 330 -203 355 -13 25 -28 50 -32 55 -4 6 -21 36 -38
67 l-29 57 18 98 c11 54 21 112 23 128 3 17 9 53 15 80 5 28 12 68 15 90 4 23
8 52 11 65 3 13 7 40 10 60 5 35 10 61 20 110 2 14 7 41 10 60 3 19 8 42 10
50 3 8 7 31 9 50 3 19 7 51 11 70 5 32 70 404 80 460 3 14 12 66 20 115 8 50
17 101 20 115 12 61 15 78 21 120 3 24 7 47 9 50 1 3 6 28 10 55 3 28 15 95
25 150 11 55 31 168 45 250 14 83 27 162 30 178 3 15 7 39 10 55 3 15 9 54 15
87 5 33 12 71 15 85 2 13 7 42 11 64 3 22 7 43 9 46 1 3 6 25 9 50 7 53 16
103 51 300 14 80 28 156 30 170 11 59 45 262 45 266 0 2 2 4 3 4 2 0 4 -1023
4 -2274z m-291 1205 c-3 -9 -8 -36 -11 -61 -4 -25 -10 -63 -15 -85 -5 -22 -11
-60 -15 -85 -3 -25 -8 -52 -10 -60 -2 -8 -6 -33 -10 -55 -3 -22 -7 -47 -10
-55 -2 -8 -6 -31 -9 -50 -3 -19 -7 -44 -10 -55 -2 -11 -7 -42 -10 -69 -4 -27
-9 -52 -11 -56 -2 -3 -6 -26 -9 -50 -7 -59 -24 -149 -31 -160 -3 -4 -26 -11
-52 -15 -27 -5 -52 -9 -58 -11 -5 -1 -21 -4 -35 -7 -77 -15 -324 -90 -401
-122 -18 -7 -18 -7 -140 290 -134 328 -161 392 -180 434 -11 24 -19 45 -17 46
2 2 28 13 58 25 162 65 442 143 645 180 114 21 140 24 240 36 33 3 62 8 63 10
10 8 32 -11 28 -25z m779 14 c121 -13 304 -47 462 -85 152 -38 448 -133 466
-150 8 -7 -294 -755 -313 -773 -4 -5 -23 -2 -41 6 -86 39 -358 115 -474 133
-22 3 -43 8 -46 10 -3 2 -12 38 -19 81 -7 43 -14 87 -16 98 -2 11 -8 45 -13
75 -17 98 -92 531 -100 575 -8 40 -7 43 13 40 12 -2 48 -6 81 -10z m-1859
-390 c17 -44 78 -190 134 -325 56 -135 110 -266 121 -292 l18 -47 -112 -54
c-197 -96 -379 -212 -551 -352 l-102 -82 -124 89 c-69 49 -161 114 -205 144
-198 137 -245 172 -293 220 -29 29 -52 56 -52 61 0 28 336 303 525 430 157
104 419 248 565 310 30 12 30 12 76 -102z m3024 53 c342 -165 690 -402 932
-637 l58 -56 -43 -44 c-35 -36 -128 -109 -213 -169 -11 -7 -111 -77 -223 -156
l-204 -143 -71 59 c-163 138 -362 267 -577 373 l-116 58 44 106 c24 58 50 120
57 136 7 17 60 143 117 281 119 289 88 264 239 192z m-2110 -630 c0 -2 -12
-66 -25 -143 -14 -77 -28 -156 -30 -175 -3 -19 -7 -46 -10 -60 -6 -26 -8 -38
-21 -110 -4 -25 -8 -47 -9 -50 0 -3 -4 -27 -9 -53 -4 -27 -9 -59 -12 -70 -2
-12 -7 -35 -9 -52 -3 -16 -14 -79 -25 -140 -10 -60 -22 -126 -25 -145 -3 -19
-10 -57 -15 -85 -5 -27 -12 -68 -15 -90 -3 -22 -7 -47 -10 -55 -2 -8 -6 -33
-10 -55 -3 -22 -8 -55 -11 -73 l-6 -33 -27 17 c-42 28 -962 675 -1008 709
l-42 32 100 79 c182 144 387 270 573 351 56 25 110 49 121 54 124 56 525 168
525 147z m1148 -24 c270 -65 533 -171 769 -310 81 -47 286 -189 332 -229 14
-13 39 -34 55 -47 l29 -25 -154 -108 c-85 -60 -185 -130 -224 -157 -180 -126
-319 -224 -496 -348 -106 -74 -195 -134 -198 -133 -3 1 -9 19 -13 40 -3 21 -9
52 -12 68 -10 52 -37 209 -41 235 -4 32 -31 179 -50 282 -2 9 -7 38 -11 65 -5
26 -9 50 -9 53 -1 6 -15 85 -21 120 -2 14 -6 36 -9 50 -2 13 -7 40 -10 60 -3
20 -8 47 -10 60 -6 31 -42 241 -51 295 -3 22 -8 43 -11 48 -7 12 23 8 135 -19z
m-3243 -166 c40 -42 208 -270 345 -471 8 -12 34 -49 57 -82 24 -32 43 -64 43
-71 0 -6 -14 -27 -30 -45 -118 -131 -278 -371 -377 -568 -41 -80 -78 -146 -81
-146 -4 0 -179 71 -389 158 -373 155 -382 159 -373 182 14 36 121 252 160 320
111 198 251 401 388 565 97 115 185 210 195 210 6 0 33 -24 62 -52z m5340 -20
c165 -177 356 -439 485 -663 84 -146 194 -376 183 -385 -4 -3 -64 -30 -133
-58 -69 -28 -239 -98 -379 -157 -140 -58 -255 -104 -256 -102 -2 1 -26 50 -55
110 -96 199 -222 394 -367 568 -34 43 -63 80 -63 83 0 3 43 68 97 143 53 76
139 199 191 273 84 120 204 260 223 260 4 0 37 -33 74 -72z m-1450 -1158
c-1084 -1085 -1065 -1066 -1030 -1005 16 28 133 232 261 455 l231 405 139 98
c214 151 645 455 747 526 167 116 372 260 392 276 10 8 21 15 24 15 3 0 -341
-347 -764 -770z m-2493 -220 c908 -908 910 -910 823 -860 -47 27 -89 50 -92
50 -3 0 -17 8 -31 18 -15 11 -52 33 -82 49 -240 132 -628 360 -640 377 -8 11
-37 52 -65 92 -46 66 -124 177 -474 674 -71 102 -151 216 -178 254 -103 147
-142 202 -163 229 -12 15 -19 27 -15 27 4 0 416 -410 917 -910z m-804 573
c469 -666 672 -956 670 -959 -2 -1 -84 -16 -183 -34 -187 -32 -230 -40 -255
-45 -8 -2 -40 -7 -70 -11 -30 -4 -57 -9 -60 -9 -14 -4 -298 -55 -445 -80 -16
-2 -55 -9 -85 -14 -30 -6 -68 -12 -85 -15 -16 -2 -55 -9 -85 -16 -30 -6 -70
-13 -89 -15 l-33 -4 6 37 c42 237 177 600 304 815 29 49 52 90 52 92 0 13 184
268 223 310 11 11 26 30 34 43 9 12 16 22 17 22 1 0 39 -53 84 -117z m4226
-43 c176 -231 333 -530 419 -795 21 -65 73 -262 91 -348 4 -15 0 -17 -22 -13
-23 5 -184 33 -292 51 -19 3 -57 10 -85 15 -27 5 -65 12 -82 15 -18 3 -48 7
-65 10 -18 3 -55 10 -83 15 -27 5 -67 12 -89 16 -21 3 -48 8 -60 10 -22 4
-360 63 -524 91 -86 15 -91 17 -80 34 21 30 196 278 348 494 77 110 198 282
268 382 l127 183 28 -33 c16 -17 61 -75 101 -127z m-5286 -449 c211 -87 385
-161 387 -163 3 -2 -11 -47 -29 -99 -41 -115 -83 -264 -105 -379 l-17 -85 -55
-12 c-29 -7 -72 -14 -94 -18 -41 -5 -71 -11 -117 -20 -15 -4 -39 -8 -55 -10
-15 -2 -82 -13 -148 -25 -66 -12 -158 -28 -205 -35 -47 -8 -95 -17 -106 -19
-85 -17 -93 -17 -89 7 2 12 6 47 10 78 3 31 7 65 9 75 2 11 7 41 10 67 4 27 9
57 11 67 2 9 6 33 9 51 5 27 49 223 60 264 30 115 131 415 139 415 1 0 174
-72 385 -159z m6536 124 c43 -102 131 -387 151 -485 2 -8 8 -33 13 -55 6 -22
13 -53 15 -70 3 -16 12 -70 20 -120 9 -49 18 -111 21 -137 3 -27 9 -68 12 -93
6 -45 6 -45 -23 -40 -23 4 -272 48 -403 70 -19 4 -60 11 -90 16 -93 17 -163
28 -205 34 -22 4 -47 8 -55 10 -8 2 -31 7 -50 10 -38 7 -50 19 -50 52 0 37
-76 321 -113 425 l-35 96 62 26 c33 14 207 86 386 160 179 75 326 136 327 136
2 0 9 -16 17 -35z m-2094 -699 c47 -8 101 -17 120 -20 19 -3 49 -8 65 -11 49
-9 76 -14 170 -30 146 -26 149 -26 175 -30 14 -2 51 -9 82 -15 31 -6 70 -13
85 -15 15 -2 69 -11 118 -20 50 -9 104 -18 120 -21 17 -2 37 -7 45 -9 8 -2 33
-7 55 -10 23 -3 52 -7 65 -10 24 -5 261 -46 680 -119 47 -8 101 -18 120 -21
19 -4 44 -8 55 -10 11 -1 74 -12 140 -24 66 -11 138 -23 160 -26 22 -4 47 -8
55 -10 8 -3 32 -7 54 -11 21 -3 48 -8 60 -10 11 -2 37 -7 56 -10 19 -2 55 -9
80 -14 25 -5 65 -12 90 -16 25 -3 54 -8 65 -10 11 -3 85 -16 165 -30 80 -14
156 -27 170 -29 14 -3 93 -17 175 -31 83 -14 152 -27 153 -29 2 -2 -1023 -4
-2278 -4 -1256 0 -2279 4 -2274 8 8 7 582 337 704 404 30 17 123 70 205 118
83 48 157 86 165 84 8 -2 53 -11 100 -19z m-1571 -695 c4 -1 -734 -427 -899
-519 -25 -13 -71 -40 -103 -58 -41 -24 -66 -33 -85 -29 -33 6 -256 44 -297 51
-16 2 -41 7 -55 9 -52 11 -79 16 -250 45 -96 16 -186 32 -200 35 -13 2 -42 7
-64 11 -22 3 -43 7 -46 9 -4 2 -26 6 -51 9 -24 3 -57 8 -74 11 -16 3 -66 12
-110 20 -44 8 -97 17 -119 21 -21 3 -48 8 -60 10 -11 2 -46 8 -76 13 -30 6
-93 17 -140 25 -47 8 -179 31 -295 51 -228 39 -248 42 -285 50 -23 4 -169 30
-235 41 -65 10 -141 24 -170 29 -16 3 -39 7 -50 9 -11 2 -47 8 -80 14 -33 6
-76 14 -95 17 -19 3 -82 14 -140 25 -58 10 -118 21 -135 23 -87 13 -402 70
-417 76 -13 5 4514 7 4531 2z m302 -230 c15 -25 69 -120 121 -211 52 -91 108
-188 124 -216 16 -28 93 -164 172 -302 l143 -250 -20 -103 c-11 -57 -22 -122
-25 -144 -4 -22 -13 -76 -21 -120 -23 -126 -25 -138 -31 -175 -3 -19 -16 -96
-29 -170 -13 -74 -27 -151 -30 -170 -3 -19 -12 -71 -20 -115 -8 -44 -17 -96
-20 -115 -3 -19 -10 -57 -15 -85 -5 -27 -12 -66 -14 -85 -3 -19 -8 -46 -10
-60 -8 -39 -45 -251 -51 -290 -3 -19 -19 -109 -35 -200 -16 -91 -32 -181 -35
-200 -3 -19 -12 -71 -20 -115 -8 -44 -17 -96 -20 -115 -3 -19 -15 -84 -25
-145 -11 -60 -22 -123 -25 -140 -2 -16 -7 -41 -10 -55 -3 -14 -14 -77 -24
-140 -11 -63 -33 -191 -50 -285 -16 -93 -33 -188 -36 -210 -11 -72 -43 -230
-45 -225 -1 3 -3 1023 -4 2268 -1 2016 1 2261 14 2241 8 -12 27 -43 41 -68z
m690 -229 l424 -244 102 -146 c56 -81 195 -280 309 -442 114 -162 261 -371
326 -465 66 -93 128 -181 138 -194 11 -14 18 -27 15 -29 -2 -3 -410 401 -907
898 -501 502 -886 894 -866 884 19 -11 226 -129 459 -262z m-1049 166 c-16
-27 -110 -190 -199 -348 -298 -523 -294 -517 -365 -567 -98 -70 -1101 -774
-1218 -856 -8 -6 392 397 890 896 498 499 906 907 908 907 2 0 -5 -15 -16 -32z
m-2897 -88 c132 -23 258 -44 279 -48 23 -4 40 -13 42 -22 20 -122 81 -349 128
-475 14 -38 22 -73 18 -77 -7 -6 -756 -318 -765 -318 -22 0 -172 489 -193 626
-3 22 -10 58 -15 82 -5 23 -11 59 -14 80 -3 20 -7 51 -10 67 -3 17 -7 55 -11
85 -3 30 -7 64 -9 75 -3 23 -56 31 550 -75z m6850 43 c-3 -26 -8 -66 -11 -88
-7 -49 -51 -303 -57 -330 -50 -204 -146 -516 -170 -549 -11 -15 -50 -1 -392
140 -209 86 -382 158 -384 161 -3 2 14 61 37 131 41 125 81 274 102 383 l11
55 187 32 c103 18 198 34 212 37 14 3 52 10 85 15 33 5 71 12 85 15 14 3 45 8
70 11 25 3 48 8 51 10 4 2 26 6 50 9 24 3 44 7 46 8 1 2 21 4 43 5 l40 3 -5
-48z m-6193 -158 c108 -19 218 -37 245 -41 26 -3 50 -8 53 -9 3 -2 50 -11 105
-20 98 -16 125 -21 175 -30 14 -2 66 -11 115 -19 50 -9 101 -18 115 -21 28 -6
61 -12 105 -19 17 -3 75 -13 130 -22 55 -9 103 -19 107 -23 4 -3 -16 -38 -45
-78 -29 -40 -153 -217 -277 -393 -124 -177 -241 -343 -260 -370 -19 -27 -62
-88 -95 -135 -33 -48 -63 -89 -67 -91 -13 -8 -189 227 -285 381 -151 243 -307
643 -348 892 -6 37 -4 41 12 37 10 -2 106 -20 215 -39z m5206 -47 c-83 -383
-257 -759 -503 -1083 -45 -60 -92 -118 -103 -128 -19 -17 -20 -17 -40 15 -12
18 -47 70 -79 114 -32 45 -114 162 -183 260 -70 99 -200 285 -291 414 -197
280 -182 256 -160 257 15 1 93 15 157 27 12 2 37 7 55 10 19 3 45 8 59 10 40
8 142 25 180 31 19 3 69 12 110 20 41 8 91 16 110 19 19 3 44 7 55 10 11 2 40
7 65 11 25 4 53 9 63 11 10 2 76 13 145 25 70 11 129 22 132 24 3 2 30 6 60
10 30 4 57 8 60 10 3 2 30 6 60 10 30 4 57 9 59 11 2 2 5 4 7 4 1 0 -7 -42
-18 -92z m-5196 -852 c76 -131 189 -290 289 -406 l47 -56 -203 -288 c-217
-308 -298 -404 -323 -383 -14 11 -124 133 -192 213 -97 112 -264 354 -359 519
-49 85 -161 306 -180 357 -8 22 -1 27 218 117 124 51 240 99 256 106 17 8 75
32 130 54 55 23 114 48 130 55 l30 14 58 -116 c32 -64 77 -147 99 -186z m5636
89 c240 -99 262 -110 256 -129 -11 -37 -144 -299 -202 -396 -131 -224 -328
-486 -494 -658 l-51 -52 -56 57 c-31 32 -82 94 -112 138 -31 44 -120 172 -199
283 l-143 204 19 23 c191 236 296 393 397 595 l72 146 125 -52 c69 -28 243
-100 388 -159z m-3857 -225 c17 -102 33 -194 35 -205 2 -11 11 -63 20 -115 9
-52 18 -104 20 -115 2 -11 9 -47 14 -80 6 -33 12 -71 15 -85 15 -83 46 -261
50 -295 4 -22 8 -47 10 -55 2 -8 7 -31 10 -50 3 -19 10 -59 15 -89 6 -30 10
-56 10 -57 0 -5 -182 38 -260 62 -47 14 -92 27 -101 29 -9 2 -47 15 -85 30
-325 125 -542 250 -807 463 l-67 54 132 94 c73 51 173 121 222 156 49 35 114
81 145 102 31 21 150 105 266 187 116 81 233 163 260 182 l50 34 7 -31 c4 -17
21 -114 39 -216z m1657 108 c103 -72 264 -185 357 -251 94 -66 248 -174 343
-241 l173 -121 -48 -42 c-61 -54 -248 -190 -333 -241 -248 -150 -525 -263
-812 -331 -129 -31 -133 -30 -116 34 4 17 15 71 23 120 8 50 26 155 41 235 14
80 41 233 59 340 19 107 36 206 39 220 3 14 12 70 22 125 9 55 18 109 20 120
3 11 9 53 15 93 6 39 16 72 20 72 5 0 94 -59 197 -132z m-2788 -736 c153 -128
354 -260 550 -359 68 -34 128 -64 132 -65 7 -3 -301 -760 -314 -774 -8 -8
-252 110 -383 186 -222 127 -490 324 -665 488 l-75 70 60 62 c33 33 83 76 110
95 28 19 151 106 275 194 124 88 229 160 233 160 5 1 39 -25 77 -57z m4041
-145 c158 -111 310 -225 338 -254 l51 -51 -30 -31 c-145 -145 -410 -348 -631
-484 -135 -83 -457 -246 -464 -235 -8 13 -188 445 -278 668 -16 41 -34 81 -40
88 -12 15 -22 9 108 72 61 29 150 77 199 106 49 30 91 54 93 54 2 0 9 5 16 10
7 6 52 38 100 72 49 34 121 90 160 124 40 35 77 63 82 63 6 0 139 -91 296
-202z m-2937 -422 c72 -19 145 -37 161 -39 88 -16 81 -8 100 -114 10 -53 19
-106 21 -117 47 -270 76 -440 84 -480 5 -27 12 -66 14 -85 3 -19 8 -48 11 -63
6 -28 5 -28 -37 -23 -24 3 -65 8 -93 11 -27 3 -57 8 -65 10 -8 2 -40 7 -70 10
-30 4 -57 8 -60 10 -3 2 -26 6 -50 10 -165 24 -668 180 -657 203 14 30 43 100
172 413 l147 357 96 -35 c52 -19 154 -49 226 -68z m1875 -110 c45 -110 86
-209 91 -220 38 -80 139 -339 135 -345 -3 -6 -145 -62 -165 -65 -3 -1 -50 -15
-105 -33 -132 -41 -344 -93 -435 -107 -19 -3 -46 -7 -60 -10 -40 -8 -82 -14
-130 -19 -126 -15 -139 -16 -135 -3 2 6 6 26 8 42 3 17 10 57 16 90 13 72 16
93 37 215 9 52 18 104 20 115 10 51 24 134 29 170 4 22 13 72 21 112 8 40 14
81 14 92 0 16 11 22 58 31 47 9 244 57 290 71 7 2 59 20 115 40 56 19 105 33
108 30 4 -3 43 -96 88 -206z"/>
<path d="M3669 9824 c-78 -23 -159 -109 -178 -189 -2 -11 -4 -47 -4 -80 0
-192 210 -318 386 -232 98 49 151 136 150 247 -1 109 -64 206 -162 247 -49 21
-136 24 -192 7z"/>
<path d="M7113 9830 c-79 -17 -161 -91 -189 -169 -21 -58 -17 -154 7 -206 96
-204 371 -214 486 -17 24 41 28 58 28 127 0 64 -5 89 -23 122 -61 115 -180
170 -309 143z"/>
<path d="M2204 8849 c-97 -37 -174 -150 -174 -254 0 -100 69 -205 162 -245
230 -99 457 128 358 357 -56 130 -212 194 -346 142z"/>
<path d="M8560 8860 c-133 -38 -218 -167 -198 -298 17 -113 91 -199 195 -226
137 -36 259 22 320 153 22 46 25 63 21 128 -5 66 -9 80 -44 130 -52 75 -121
114 -207 118 -34 1 -73 -1 -87 -5z"/>
<path d="M1275 7411 c-94 -24 -174 -98 -200 -183 -68 -231 164 -429 380 -324
196 97 199 383 4 481 -52 27 -136 39 -184 26z"/>
<path d="M9530 7407 c-86 -24 -131 -62 -177 -150 -28 -54 -28 -172 0 -229 82
-166 304 -205 436 -76 48 47 73 104 79 179 5 72 -13 128 -63 194 -53 69 -183
108 -275 82z"/>
<path d="M1290 3990 c-59 -10 -128 -49 -164 -93 -111 -138 -70 -336 88 -420
58 -31 184 -31 242 0 84 45 143 135 148 227 10 175 -143 314 -314 286z"/>
<path d="M9553 3989 c-84 -16 -160 -73 -198 -149 -28 -54 -31 -165 -7 -220 56
-129 184 -193 321 -160 68 16 139 73 171 136 34 67 35 188 3 250 -54 102 -179
164 -290 143z"/>
<path d="M2270 2539 c-95 -14 -167 -65 -211 -150 -33 -62 -33 -175 0 -238 70
-133 225 -189 355 -127 67 32 101 65 131 125 97 192 -65 422 -275 390z"/>
<path d="M8578 2535 c-200 -40 -287 -274 -161 -432 102 -128 289 -138 403 -23
189 188 20 507 -242 455z"/>
<path d="M3674 1558 c-118 -38 -188 -135 -188 -258 0 -150 102 -257 257 -268
60 -4 73 -2 130 27 102 51 159 147 152 259 -7 123 -109 236 -224 249 -20 2
-43 5 -52 7 -9 2 -43 -5 -75 -16z"/>
<path d="M7145 1569 c-268 -35 -325 -399 -80 -515 176 -83 385 51 385 247 0
162 -144 289 -305 268z"/>
</g>
</svg>
